<svg xmlns="http://www.w3.org/2000/svg" xmlns:xlink="http://www.w3.org/1999/xlink" width="1366" height="540" viewBox="0 0 1366 540">
  <defs>
    <filter id="Union_1" x="-1.5" y="-0.5" width="1369" height="543" filterUnits="userSpaceOnUse">
      <feOffset dy="1" input="SourceAlpha"/>
      <feGaussianBlur stdDeviation="0.5" result="blur"/>
      <feFlood flood-opacity="0.161"/>
      <feComposite operator="in" in2="blur"/>
      <feComposite in="SourceGraphic"/>
    </filter>
    <clipPath id="clip-path">
      <g transform="matrix(1, 0, 0, 1, 0, 0)" filter="url(#Union_1)">
        <path id="Union_1-2" data-name="Union 1" d="M0,377.111V0H1366V377.111C1107.271,499.293,869.309,540.01,666.923,540,262.224,539.98,0,377.111,0,377.111Z" transform="translate(-15003 2079)" fill="#fff" opacity="0.85"/>
      </g>
    </clipPath>
    <clipPath id="clip-path-2">
      <rect id="Rectangle_309" data-name="Rectangle 309" width="9.662" height="19.325"/>
    </clipPath>
    <clipPath id="clip-path-6">
      <rect id="Rectangle_313" data-name="Rectangle 313" width="24.964" height="49.929"/>
    </clipPath>
    <clipPath id="clip-path-7">
      <rect id="Rectangle_314" data-name="Rectangle 314" width="30.088" height="60.161"/>
    </clipPath>
    <clipPath id="clip-path-8">
      <rect id="Rectangle_315" data-name="Rectangle 315" width="19.439" height="38.877"/>
    </clipPath>
  </defs>
  <g id="background" transform="translate(14989 -2124)">
    <g id="Mask_Group_9" data-name="Mask Group 9" transform="translate(14 45)" clip-path="url(#clip-path)">
      <g id="_18129_Converted_" data-name="18129 [Converted]" transform="translate(-15003.242 1983)">
        <g id="BG" transform="translate(0.242)">
          <rect id="Rectangle_266" data-name="Rectangle 266" width="1366" height="852" transform="translate(0)" fill="#fff"/>
        </g>
        <g id="Objects" transform="translate(36.971 42.741)">
          <g id="Group_615" data-name="Group 615" transform="translate(368.128 330.656)">
            <path id="Path_283" data-name="Path 283" d="M627.87,549.057H533.72V491.94h94.15v57.117Zm-89.209-4.941h84.267V496.881H538.661Z" transform="translate(-533.72 -491.94)" fill="#e5e6e7"/>
          </g>
          <g id="Group_616" data-name="Group 616" transform="translate(238.015 482.257)">
            <path id="Path_284" data-name="Path 284" d="M412.7,792.469a50.4,50.4,0,1,1,50.4-50.4A50.46,50.46,0,0,1,412.7,792.469Zm0-95.85a45.458,45.458,0,1,0,45.458,45.458A45.513,45.513,0,0,0,412.7,696.619Z" transform="translate(-362.3 -691.67)" fill="#dcdcdb"/>
          </g>
          <g id="Group_617" data-name="Group 617" transform="translate(136.571 579.041)">
            <path id="Path_285" data-name="Path 285" d="M261.569,885.018A32.919,32.919,0,1,1,294.488,852.1,32.956,32.956,0,0,1,261.569,885.018Zm0-60.9a27.978,27.978,0,1,0,27.978,27.978A28.009,28.009,0,0,0,261.569,824.114Z" transform="translate(-228.65 -819.18)" fill="#dcdcdb"/>
          </g>
          <g id="Group_618" data-name="Group 618" transform="translate(1145.92 275.49)">
            <path id="Path_286" data-name="Path 286" d="M1631.14,564.66a72.691,72.691,0,1,1,51.409-21.291A72.233,72.233,0,0,1,1631.14,564.66Zm0-140.458a67.767,67.767,0,1,0,47.91,19.849A67.318,67.318,0,0,0,1631.14,424.2Z" transform="translate(-1558.44 -419.26)" fill="#dcdcdb"/>
          </g>
          <g id="Group_619" data-name="Group 619" transform="translate(602.721 659.809)">
            <path id="Path_287" data-name="Path 287" d="M895.96,1031.93a53.17,53.17,0,1,1,53.17-53.17A53.231,53.231,0,0,1,895.96,1031.93Zm0-101.4a48.229,48.229,0,1,0,48.229,48.229A48.284,48.284,0,0,0,895.96,930.531Z" transform="translate(-842.79 -925.59)" fill="#dcdcdb"/>
          </g>
          <g id="Group_620" data-name="Group 620" transform="translate(582.303 707.21)">
            <path id="Path_288" data-name="Path 288" d="M842.3,1040.869a26.414,26.414,0,1,1,26.414-26.414A26.443,26.443,0,0,1,842.3,1040.869Zm0-47.88a21.473,21.473,0,1,0,21.473,21.473A21.5,21.5,0,0,0,842.3,992.989Z" transform="translate(-815.89 -988.04)" fill="#dcdcdb"/>
          </g>
          <g id="Group_621" data-name="Group 621" transform="translate(1004.703 542.971)">
            <path id="Path_289" data-name="Path 289" d="M1466.54,933.045h-94.15V771.66h94.15Zm-89.209-4.941H1461.6V776.6h-84.267Z" transform="translate(-1372.39 -771.66)" fill="#dcdcdb"/>
          </g>
          <g id="Group_622" data-name="Group 622" transform="translate(189.946 571.928)">
            <path id="Path_290" data-name="Path 290" d="M441.144,972.789H438.4v-2.414h2.748Zm0-5.161H438.4v-5.488h2.748Zm0-8.235H438.4V953.9h2.748Zm0-8.235H438.4v-5.488h2.748Zm0-8.235H438.4v-5.488h2.748Zm0-8.228H438.4v-5.488h2.748Zm0-8.235H438.4V920.97h2.748Zm0-8.235H438.4v-5.488h2.748Zm0-8.235H438.4V904.5h2.748Zm0-8.235H438.4v-5.488h2.748Zm0-8.235H438.4v-5.488h2.748Zm-140.8-.433-1.374-2.376,4.752-2.748,1.374,2.376Zm7.127-4.122-1.374-2.376,4.752-2.748,1.374,2.376Zm133.673-3.681H438.4v-5.488h2.748Zm-126.538-.433-1.374-2.376,4.752-2.748,1.374,2.376Zm7.127-4.122-1.374-2.376,4.752-2.748,1.374,2.376Zm119.41-3.681H438.4v-5.488h2.748Zm-112.276-.433-1.374-2.376,4.751-2.748,1.374,2.376ZM336,872.491l-1.374-2.376,4.752-2.748,1.374,2.376Zm105.141-3.681H438.4v-5.488h2.748Zm-98.013-.433L341.756,866l4.752-2.748,1.374,2.376Zm7.135-4.122-1.374-2.376,4.752-2.748,1.374,2.376Zm90.879-3.681H438.4v-5.488h2.748Zm-83.751-.433-1.374-2.376,4.752-2.748,1.374,2.376Zm7.135-4.122-1.374-2.376L367.9,850.9l1.374,2.376Zm76.616-3.681H438.4v-5.488h2.748Zm-69.482-.433-1.374-2.376,4.752-2.748,1.374,2.376Zm7.127-4.114-1.374-2.376,4.751-2.748,1.374,2.376Zm62.354-3.689H438.4v-5.488h2.748Zm-55.219-.433-1.374-2.376,4.752-2.748,1.374,2.376Zm7.127-4.114-1.374-2.376,4.752-2.748,1.374,2.376Zm48.092-3.689H438.4V830.38h2.748Zm-40.957-.433-1.374-2.376,4.751-2.748,1.374,2.376Zm7.135-4.114-1.374-2.376L410.7,826.2l1.374,2.376Zm33.822-3.689H438.4v-5.488h2.748Zm-26.7-.433-1.374-2.376,4.752-2.748,1.374,2.376Zm7.135-4.114-1.374-2.376,4.752-2.748,1.374,2.376Zm19.56-3.689H438.4v-5.488h2.748Zm-12.433-.433-1.374-2.376,4.752-2.748,1.374,2.376Zm7.135-4.114-1.374-2.376,4.607-2.664L441.136,811v.167h-1.275l.592,1.025Z" transform="translate(-298.97 -809.81)" fill="#595a5c"/>
          </g>
          <g id="Group_623" data-name="Group 623" transform="translate(186.754 449.082)">
            <rect id="Rectangle_267" data-name="Rectangle 267" width="49.291" height="2.748" transform="translate(0 41.72) rotate(-57.82)" fill="#595a5c"/>
          </g>
          <g id="Group_624" data-name="Group 624" transform="translate(254.333 367.76)">
            <rect id="Rectangle_268" data-name="Rectangle 268" width="22.331" height="2.748" transform="matrix(0.722, -0.692, 0.692, 0.722, 0, 15.451)" fill="#595a5c"/>
          </g>
          <g id="Group_625" data-name="Group 625" transform="translate(222.5 334.216)">
            <path id="Path_291" data-name="Path 291" d="M344.327,535.416l-2.467-1.2.266-.547,2.467,1.2Zm1.465-3.021-2.467-1.2,2.4-4.941,2.467,1.2Zm3.6-7.4-2.467-1.2,2.4-4.941,2.467,1.2Zm3.6-7.408-2.467-1.2,2.4-4.941,2.467,1.2Zm3.6-7.408-2.467-1.2,2.4-4.941,2.467,1.2Zm3.6-7.408-2.467-1.2,2.4-4.941,2.467,1.2Z" transform="translate(-341.86 -496.63)" fill="#595a5c"/>
          </g>
          <g id="Group_626" data-name="Group 626" transform="translate(151.371 339.967)">
            <rect id="Rectangle_269" data-name="Rectangle 269" width="2.748" height="51.037" transform="translate(0 1.928) rotate(-44.558)" fill="#595a5c"/>
          </g>
          <g id="Group_627" data-name="Group 627" transform="translate(115.399 423.294)">
            <rect id="Rectangle_270" data-name="Rectangle 270" width="66.127" height="2.748" transform="matrix(1, -0.003, 0.003, 1, 0, 0.22)" fill="#595a5c"/>
          </g>
          <g id="Group_628" data-name="Group 628" transform="translate(265.258 414.492)">
            <rect id="Rectangle_271" data-name="Rectangle 271" width="2.748" height="50.346" transform="matrix(0.08, -0.997, 0.997, 0.08, 0, 2.739)" fill="#595a5c"/>
          </g>
          <g id="Group_629" data-name="Group 629" transform="translate(25.38 192.862)">
            <path id="Path_292" data-name="Path 292" d="M84.672,473.834l-2.512-1.116,2.232-5.017,2.5,1.116Zm3.34-7.53L85.5,465.189l2.232-5.017,2.512,1.116Zm3.347-7.522-2.5-1.116,2.232-5.017,2.512,1.116Zm3.34-7.53-2.512-1.116,2.232-5.017,2.512,1.116Zm3.347-7.522-2.512-1.116,2.232-5.017,2.512,1.116Zm3.347-7.53-2.512-1.116,2.232-5.017,2.512,1.116Zm3.34-7.522-2.512-1.116,2.232-5.017,2.512,1.116Zm3.347-7.522-2.512-1.116,2.232-5.017,2.512,1.116Zm3.34-7.53-2.512-1.116,2.232-5.017,2.512,1.116Zm67.561-.273-1.192-.342.425-1.488-.114-.053.349-.789.091-.311.046.015,1.245-2.793,2.512,1.116-1.723,3.886Zm-3.833-1.093-5.283-1.5.751-2.641,5.283,1.5Zm-7.917-2.254-5.283-1.5.751-2.641,5.283,1.5Zm-7.924-2.254-5.283-1.5.751-2.641,5.283,1.5Zm24.145-1.556-2.5-1.116,2.232-5.017,2.5,1.116Zm-68.685-.091-2.512-1.116,2.232-5.017L117,401.089Zm36.623-.615-5.283-1.5.751-2.641,5.283,1.5Zm-7.924-2.254-5.283-1.5.751-2.641,5.283,1.5Zm-7.917-2.254-5.283-1.5.751-2.641,5.283,1.5Zm-7.917-2.262-5.283-1.5.751-2.641,5.283,1.5Zm59.159-.046-2.512-1.116,2.232-5.017,2.5,1.116Zm-68.685-.1-2.512-1.116,1.5-3.37,1.632-.759,1.738.493-.751,2.641-.592-.167Zm72.032-7.431-2.512-1.116,2.232-5.017,2.5,1.116Zm3.34-7.522-2.5-1.116,2.232-5.017,2.512,1.116Zm3.347-7.53-2.512-1.116,2.232-5.017,2.512,1.116Zm3.34-7.522-2.512-1.116,2.232-5.017,2.5,1.116Zm3.34-7.53-2.5-1.116,2.232-5.017,2.512,1.116Zm63.28-3.013-2.307-1.488,2.975-4.615,2.307,1.488Zm-4.015-.387-4.425-3.249,1.624-2.216,4.425,3.249Zm-55.918-4.122-2.5-1.116,2.232-5.017,2.512,1.116Zm49.276-.744-4.425-3.249,1.624-2.216,4.425,3.249Zm15.12-1.67-2.307-1.488L271.917,345l2.307,1.488Zm-21.761-3.2-4.425-3.249,1.624-2.216,4.425,3.249Zm-39.295-1.92-2.5-1.116,2.232-5.017,2.5,1.116Zm65.519-1.806L273.4,342.7l2.975-4.615,2.307,1.488Zm-32.874-1.146-4.425-3.249,1.624-2.216,4.425,3.249Zm-29.3-4.577-2.5-1.116,2.232-5.017,2.512,1.116Zm22.657-.288-4.425-3.249,1.624-2.216,4.425,3.249Zm43.978-.9-2.307-1.488,2.975-4.615,2.307,1.488Zm-50.62-3.962-4.425-3.249,1.624-2.216,4.425,3.249Zm-12.676-2.368-2.5-1.116,2.232-5.017,2.512,1.116Zm67.759-.592-2.307-1.488,2.975-4.615,2.307,1.488Zm-61.724-1.913-4.425-3.249,1.624-2.216,4.425,3.249Zm66.187-5.01-2.307-1.488,2.975-4.615,2.307,1.488Zm4.463-6.922-2.307-1.488,2.975-4.615,2.307,1.488Z" transform="translate(-82.16 -310.4)" fill="#595a5c"/>
          </g>
          <g id="Group_630" data-name="Group 630" transform="translate(412.447 154.872)">
            <path id="Path_293" data-name="Path 293" d="M820.16,716.435A227.978,227.978,0,0,1,658.9,327.129l3.879,3.879a221.985,221.985,0,1,0,71.28-47.9l-2.125-5.063A228.109,228.109,0,1,1,820.16,716.435Z" transform="translate(-592.11 -260.35)" fill="#e5e6e7"/>
          </g>
          <g id="Group_631" data-name="Group 631" transform="translate(399.207 141.726)">
            <path id="Path_294" data-name="Path 294" d="M815.919,725.514a241.284,241.284,0,0,1-6.065-482.484l.144,5.488a235.785,235.785,0,1,0,69.185,462.788A234.727,234.727,0,0,0,1000.826,630.5a237.469,237.469,0,0,0,25.814-40.54l4.9,2.467a242.046,242.046,0,0,1-60.9,76.966,242.381,242.381,0,0,1-154.72,56.122Z" transform="translate(-574.666 -243.03)" fill="#e5e6e7"/>
          </g>
          <g id="Group_632" data-name="Group 632" transform="translate(463.454 127.623)">
            <path id="Path_295" data-name="Path 295" d="M835.534,734.852q-7.64,0-15.3-.455a256.693,256.693,0,0,1-85.755-20.16A253.894,253.894,0,0,1,659.31,664.96l3.772-3.985A250.876,250.876,0,1,0,868.1,229.892l.721-5.442a256.292,256.292,0,0,1-33.291,510.4Z" transform="translate(-659.31 -224.45)" fill="#e5e6e7"/>
          </g>
          <g id="Group_633" data-name="Group 633" transform="translate(285.94 27.613)">
            <path id="Path_296" data-name="Path 296" d="M519.59,149.807H425.44V92.69h94.15Zm-89.209-4.941h84.267V97.631H430.381Z" transform="translate(-425.44 -92.69)" fill="#dcdcdb"/>
          </g>
          <g id="Group_634" data-name="Group 634" transform="translate(8.485 202.938)">
            <circle id="Ellipse_42" data-name="Ellipse 42" cx="68.685" cy="68.685" r="68.685" transform="matrix(0.045, -0.999, 0.999, 0.045, 0, 137.232)" fill="#e5e6e7"/>
          </g>
          <g id="Group_635" data-name="Group 635" transform="translate(0 166.964)">
            <circle id="Ellipse_43" data-name="Ellipse 43" cx="18.118" cy="18.118" r="18.118" transform="matrix(0.055, -0.998, 0.998, 0.055, 0, 36.182)" fill="#e5e6e7"/>
          </g>
          <g id="Group_636" data-name="Group 636" transform="translate(956.261 680.834)">
            <rect id="Rectangle_272" data-name="Rectangle 272" width="89.209" height="56.274" fill="#dcdcdb"/>
          </g>
          <g id="Group_637" data-name="Group 637" transform="translate(750.944 9.64)">
            <rect id="Rectangle_273" data-name="Rectangle 273" width="217.728" height="108.602" fill="#e5e6e7"/>
          </g>
          <g id="Group_638" data-name="Group 638" transform="translate(1147.863 30.08)">
            <rect id="Rectangle_274" data-name="Rectangle 274" width="108.86" height="54.301" fill="#dcdcdb"/>
          </g>
          <g id="Group_639" data-name="Group 639" transform="translate(442.695 178.083)">
            <path id="Path_297" data-name="Path 297" d="M864.732,759.505l-8.592,50.119a203.53,203.53,0,0,0,87.448-3.962L930.457,756.53A153.127,153.127,0,0,1,864.732,759.505Z" transform="translate(-685.982 -403.126)" fill="#a6a7aa"/>
            <path id="Path_298" data-name="Path 298" d="M687.069,474.273a153.336,153.336,0,0,1,65.99-96.5l-27.917-42.5a204.033,204.033,0,0,0-87.8,128.39q-1.1,5.158-1.928,10.308l50.21,8.038Q686.246,478.156,687.069,474.273Z" transform="translate(-632.792 -301.617)" fill="#dcdcdb"/>
            <path id="Path_299" data-name="Path 299" d="M770.759,723.12l-30.43,40.752a202.589,202.589,0,0,0,18.49,12.311l25.921-43.758A152.048,152.048,0,0,1,770.759,723.12Z" transform="translate(-658.075 -395.075)" fill="#dcdcdb"/>
            <path id="Path_300" data-name="Path 300" d="M696.4,630.91l-47.7,17.625a205.843,205.843,0,0,0,47.189,73.732l35.978-35.94A154.836,154.836,0,0,1,696.4,630.91Z" transform="translate(-635.994 -372.855)" fill="#dcdcdb"/>
            <path id="Path_301" data-name="Path 301" d="M798.561,739.51,774.5,784.316a204.571,204.571,0,0,0,24.57,11.1L817,747.821A153.071,153.071,0,0,1,798.561,739.51Z" transform="translate(-666.309 -399.024)" fill="#dcdcdb"/>
            <path id="Path_302" data-name="Path 302" d="M817.48,801.545q5.34,1.753,10.824,3.218L841.5,755.654q-4.11-1.1-8.106-2.414Z" transform="translate(-676.666 -402.333)" fill="#dcdcdb"/>
            <path id="Path_303" data-name="Path 303" d="M971.95,717.67l17.617,47.7a204.591,204.591,0,0,0,126.758-138.933l-49.109-13.192A153.759,153.759,0,0,1,971.95,717.67Z" transform="translate(-713.888 -368.599)" fill="#a6a7aa"/>
            <path id="Path_304" data-name="Path 304" d="M880.545,342.141l-2.93-50.771a204.364,204.364,0,0,0-26.915,3.347l9.617,49.944A152.944,152.944,0,0,1,880.545,342.141Z" transform="translate(-684.671 -291.036)" fill="#dcdcdb"/>
            <path id="Path_305" data-name="Path 305" d="M683.893,535.148l-50.506-5.928a203.411,203.411,0,0,0,2.254,62.582l49.944-9.617A153.026,153.026,0,0,1,683.893,535.148Z" transform="translate(-631.961 -348.351)" fill="#dcdcdb"/>
            <path id="Path_306" data-name="Path 306" d="M932.767,345.2a153.491,153.491,0,0,1,102.279,75.516l44.578-24.464a205.014,205.014,0,0,0-182.144-105.3l.8,50.847A154.986,154.986,0,0,1,932.767,345.2Z" transform="translate(-695.943 -290.93)" fill="#dcdcdb"/>
            <path id="Path_307" data-name="Path 307" d="M807.461,359.673l-20.114-46.7a206.517,206.517,0,0,0-24.137,12.365l26.111,43.629A154.635,154.635,0,0,1,807.461,359.673Z" transform="translate(-663.588 -296.241)" fill="#dcdcdb"/>
            <path id="Path_308" data-name="Path 308" d="M688.7,607.32l-49.5,11.7q.683,2.892,1.45,5.753l49.132-13.131Q689.212,609.495,688.7,607.32Z" transform="translate(-633.705 -367.17)" fill="#dcdcdb"/>
            <path id="Path_309" data-name="Path 309" d="M805.49,306.16l18.141,47.508a154.6,154.6,0,0,1,19.477-6.011l-11.7-49.5A206.382,206.382,0,0,0,805.49,306.16Z" transform="translate(-673.776 -292.672)" fill="#dcdcdb"/>
            <path id="Path_310" data-name="Path 310" d="M1154.551,555.75l-50.847,1.078a153.675,153.675,0,0,1-2.224,28.646l50.119,8.592A204.644,204.644,0,0,0,1154.551,555.75Z" transform="translate(-745.101 -354.744)" fill="#dcdcdb"/>
            <path id="Path_311" data-name="Path 311" d="M1099.375,517.879,1149.9,512.1a204.15,204.15,0,0,0-16.114-59.956l-46.65,20.236A153.277,153.277,0,0,1,1099.375,517.879Z" transform="translate(-741.646 -329.777)" fill="#dcdcdb"/>
          </g>
          <g id="Group_640" data-name="Group 640" transform="translate(887.387 451.023)">
            <path id="Path_312" data-name="Path 312" d="M1348.808,654.953l-11.477,4.44,6.011,5.032L1301.87,713.99,1271.3,688.411l-53.466,63.9,6.247,5.23,48.236-57.648,29.807,24.942.767.638,46.7-55.819,6.019,5.04,2.345-12.084,2.338-12.084Z" transform="translate(-1217.83 -650.52)" fill="#4674b7"/>
          </g>
          <g id="Group_641" data-name="Group 641" transform="translate(894.484 583.185)">
            <rect id="Rectangle_275" data-name="Rectangle 275" width="24.251" height="72.821" fill="#a6a7aa"/>
          </g>
          <g id="Group_642" data-name="Group 642" transform="translate(928.337 541.742)">
            <rect id="Rectangle_276" data-name="Rectangle 276" width="24.251" height="115.069" fill="#a6a7aa"/>
          </g>
          <g id="Group_643" data-name="Group 643" transform="translate(962.242 559.078)">
            <rect id="Rectangle_277" data-name="Rectangle 277" width="24.251" height="97.725" fill="#a6a7aa"/>
          </g>
          <g id="Group_644" data-name="Group 644" transform="translate(996.156 520.102)">
            <rect id="Rectangle_278" data-name="Rectangle 278" width="24.251" height="136.701" fill="#a6a7aa"/>
          </g>
          <g id="Group_645" data-name="Group 645" transform="translate(292.862 472.511)">
            <path id="Path_313" data-name="Path 313" d="M549.773,803.918a49.983,49.983,0,0,0-31.8-46.551,43.542,43.542,0,1,0-51.606,0,49.983,49.983,0,0,0-31.8,46.551v31.234h45.064l-.88-1.5,6.71-46.718-6.71-14.968,6.71-14.968h13.42l6.71,14.968-6.71,14.968,6.71,46.718-.88,1.5h45.064V803.918Z" transform="translate(-434.56 -678.83)" fill="#dcdcdb"/>
            <path id="Path_314" data-name="Path 314" d="M512.907,811.744l6.71-14.976-6.71-14.968H499.48l-6.71,14.968,6.71,14.976-6.71,46.718.88,1.5,11.514,19.7h2.057l11.514-19.7.88-1.5Z" transform="translate(-448.587 -703.643)" fill="#4674b7"/>
          </g>
          <g id="Group_646" data-name="Group 646" transform="translate(220.087 38.141)">
            <path id="Path_315" data-name="Path 315" d="M371.25,106.56a46.646,46.646,0,0,0-32.57,13.2l32.57,33.625Z" transform="translate(-338.68 -106.56)" fill="#df912f"/>
          </g>
          <path id="Path_316" data-name="Path 316" d="M331.435,140.69a46.775,46.775,0,0,0-5.624,60.692L364,174.315Z" transform="translate(-113.413 -76.643)" fill="#a6a7aa"/>
          <path id="Path_317" data-name="Path 317" d="M427.84,172.512a48.46,48.46,0,0,0-.425-6.156c-.1-.767-.22-1.526-.357-2.277a47.784,47.784,0,0,0-1.131-4.789c-.2-.676-.41-1.336-.63-2q-.74-2.175-1.677-4.243c-.273-.6-.554-1.2-.85-1.784q-.979-1.947-2.125-3.8c-.334-.539-.676-1.078-1.032-1.6-.88-1.3-1.829-2.55-2.831-3.75-.395-.478-.8-.949-1.222-1.412-.934-1.04-1.92-2.027-2.937-2.983-.455-.425-.918-.835-1.389-1.245q-1.594-1.378-3.309-2.611c-.509-.372-1.025-.729-1.556-1.078q-1.8-1.2-3.7-2.224c-.569-.311-1.154-.607-1.738-.9a48.774,48.774,0,0,0-4.622-1.958c-.653-.235-1.306-.463-1.966-.668a47.007,47.007,0,0,0-4.706-1.214c-.736-.152-1.48-.281-2.232-.4a48.613,48.613,0,0,0-5.4-.516c-.638-.023-1.275-.046-1.913-.046a.933.933,0,0,0-.934.934v46.362l-3.309,2.345-9.032,6.4-20.327,14.406-5.131,3.636a.9.9,0,0,0-.38.6.954.954,0,0,0,.159.7c.061.083.121.159.182.235.827,1.146,1.708,2.247,2.619,3.3.41.471.812.934,1.237,1.389.956,1.025,1.951,2,2.991,2.93.463.417.934.82,1.412,1.222,1.207,1,2.452,1.958,3.742,2.831.524.357,1.07.691,1.609,1.025,1.23.767,2.5,1.48,3.788,2.133.592.3,1.176.584,1.776.85a44.559,44.559,0,0,0,4.258,1.662c.66.228,1.321.44,2,.638a48.076,48.076,0,0,0,4.774,1.154c.759.137,1.518.243,2.285.349a46.052,46.052,0,0,0,6.148.425c.046,0,.084.008.129.008.858,0,1.715-.023,2.566-.068a47.156,47.156,0,0,0,6.771-.85c1.169-.235,2.323-.516,3.461-.835a47.447,47.447,0,0,0,9.928-4.008,48.454,48.454,0,0,0,19.249-19.249,47.447,47.447,0,0,0,4.008-9.928c.319-1.139.6-2.292.835-3.469a47.3,47.3,0,0,0,.85-6.771c.046-.85.068-1.708.068-2.566A.29.29,0,0,0,427.84,172.512Z" transform="translate(-119.144 -72.829)" fill="#dcdcdb"/>
          <g id="Group_648" data-name="Group 648" transform="translate(271.283 171.237)">
            <g id="Group_647" data-name="Group 647">
              <path id="Path_318" data-name="Path 318" d="M503.7,367.286l8.949,4.068,7.044-15.484-8.949-4.068s-2.611-2.4-2.953-8.7c.114-1.268.167-2.528.167-3.788.66-6.717,3.605-9.07,3.605-9.07l9.207-3.446L514.8,310.867l-9.207,3.446s-3.924.167-8.979-4.759q-.535-.6-1.093-1.184c-4.8-5.511-4.357-9.533-4.357-9.533l4.068-8.949-15.484-7.044-4.068,8.949s-2.74,2.983-10.05,2.983q-.82-.034-1.639-.046h-.008c-.152,0-.3-.008-.455-.008-6.717-.66-9.07-3.605-9.07-3.605l-3.446-9.207-15.924,5.966,3.446,9.207s.167,3.924-4.759,8.979q-.6.535-1.184,1.093c-5.511,4.8-9.533,4.349-9.533,4.349l-8.949-4.068-7.044,15.484,8.949,4.068s2.983,2.74,2.983,10.05c-.023.547-.038,1.1-.046,1.647v.008h0c0,.152-.008.3-.008.455-.66,6.717-3.605,9.07-3.605,9.07l-9.207,3.446L412.1,367.6l9.207-3.446s3.924-.167,8.979,4.759c.729.82,1.5,1.609,2.285,2.376,3.886,4.972,3.492,8.494,3.492,8.494l-4.068,8.949,15.484,7.044,4.068-8.949s3.142-3.431,11.7-2.937l-.038-.038c7.089.562,9.564,3.643,9.564,3.643l3.446,9.207,15.932-5.966-3.446-9.207s-.2-4.645,6.2-10.353l-.182-.008C499.938,366.868,503.7,367.286,503.7,367.286Zm-51.189-4.008a26.417,26.417,0,1,1,34.984-13.108A26.452,26.452,0,0,1,452.507,363.278Z" transform="translate(-406.13 -281.91)" fill="#a5a7a9"/>
            </g>
          </g>
          <g id="Group_650" data-name="Group 650" transform="translate(363.816 141.202)">
            <g id="Group_649" data-name="Group 649">
              <path id="Path_319" data-name="Path 319" d="M573.073,292.55l3.7,3.446,5.958-6.4-3.7-3.446s-.88-1.594-.023-4.721c.258-.6.493-1.207.7-1.822,1.419-3.173,3.233-3.841,3.233-3.841l5.048-.182-.311-8.736-5.048.182s-1.935-.562-3.6-3.788q-.159-.376-.342-.751c-1.442-3.469-.569-5.359-.569-5.359l3.446-3.7-6.4-5.958-3.446,3.7s-1.822,1.01-5.389-.182c-.266-.1-.531-.2-.8-.288h-.008c-.076-.023-.144-.053-.22-.076-3.165-1.419-3.833-3.233-3.833-3.233l-.182-5.048-8.736.311.182,5.055s-.562,1.936-3.788,3.6c-.251.106-.509.22-.759.342-3.469,1.442-5.359.569-5.359.569l-3.7-3.446-5.958,6.4,3.7,3.446s1.01,1.822-.182,5.389c-.1.266-.2.531-.288.8v.008h0c-.023.076-.053.144-.076.22-1.419,3.165-3.233,3.833-3.233,3.833l-5.048.182.311,8.736,5.048-.182s1.936.562,3.6,3.78c.22.516.463,1.025.729,1.533,1.085,3.059.319,4.714.319,4.714l-3.446,3.7,6.4,5.958,3.446-3.7s2.095-1.161,6.186.478l-.008-.023c3.37,1.427,4.068,3.332,4.068,3.332l.182,5.048,8.736-.311-.182-5.048s.66-2.3,4.714-4.038l-.091-.03C571.312,291.738,573.073,292.55,573.073,292.55Zm-24.3-10.292a13.582,13.582,0,1,1,19.2-.691A13.6,13.6,0,0,1,548.769,282.257Z" transform="translate(-528.04 -242.34)" fill="#4674b7"/>
            </g>
          </g>
          <g id="Group_657" data-name="Group 657" transform="translate(868.298 47.766)">
            <g id="Group_651" data-name="Group 651">
              <rect id="Rectangle_279" data-name="Rectangle 279" width="272.294" height="178.554" fill="#a6a7aa"/>
            </g>
            <g id="Group_652" data-name="Group 652" transform="translate(23.598 24.403)">
              <rect id="Rectangle_280" data-name="Rectangle 280" width="225.098" height="129.748" fill="#fff"/>
            </g>
            <g id="Group_653" data-name="Group 653" transform="translate(63.538 33.929)">
              <path id="Path_320" data-name="Path 320" d="M1361.9,272.542l-16.19-95.82-20.9,44.707H1276.39v-3.848h45.974l25.086-53.641,15.272,90.37,12.63-48.107h46.263v3.848H1378.32Z" transform="translate(-1276.39 -163.94)" fill="#df912f"/>
            </g>
            <g id="Group_654" data-name="Group 654" transform="translate(95.547 178.554)">
              <rect id="Rectangle_281" data-name="Rectangle 281" width="81.201" height="22.945" fill="#595a5c"/>
            </g>
            <g id="Group_655" data-name="Group 655" transform="translate(71.705 201.499)">
              <rect id="Rectangle_282" data-name="Rectangle 282" width="128.883" height="12.372" fill="#a6a7aa"/>
            </g>
            <g id="Group_656" data-name="Group 656" transform="translate(13.837 13.837)">
              <path id="Path_321" data-name="Path 321" d="M1455.53,288.35H1210.91V137.47h244.62Zm-243.246-1.374h241.88V138.844h-241.88Z" transform="translate(-1210.91 -137.47)" fill="#e6e6e6"/>
            </g>
          </g>
          <g id="Group_658" data-name="Group 658" transform="translate(94.566 306.868)">
            <circle id="Ellipse_44" data-name="Ellipse 44" cx="31.629" cy="31.629" r="31.629" transform="matrix(0.984, -0.178, 0.178, 0.984, 87.025, 81.358)" fill="none"/>
            <path id="Path_322" data-name="Path 322" d="M489.907,608.169a9.769,9.769,0,1,0-9.769,9.761A9.767,9.767,0,0,0,489.907,608.169Z" transform="translate(-244.893 -493.806)" fill="none"/>
            <path id="Path_323" data-name="Path 323" d="M321.463,633.579h-.068V617.943a31.629,31.629,0,1,1,0-63.257V539.05A47.276,47.276,0,0,1,368.28,580.3a47.274,47.274,0,1,0-11.9,37.8A47.156,47.156,0,0,1,321.463,633.579Z" transform="translate(-197.605 -479.504)" fill="#4674b7"/>
            <path id="Path_324" data-name="Path 324" d="M336.4,539.05v15.636a31.629,31.629,0,1,1,0,63.257v15.636h.068A47.156,47.156,0,0,0,371.384,618.1c.251-.281.509-.562.751-.85a47.081,47.081,0,0,0,11.522-30.93A47.22,47.22,0,0,0,336.4,539.05Z" transform="translate(-212.61 -479.504)" fill="#2c436d"/>
            <path id="Path_325" data-name="Path 325" d="M490.022,605.154a12.886,12.886,0,0,0-12.888-12.888V585.89h0a19.264,19.264,0,0,0,0,38.528h0v-6.376A12.886,12.886,0,0,0,490.022,605.154Zm-22.657,0a9.769,9.769,0,1,1,9.769,9.761A9.767,9.767,0,0,1,467.365,605.154Z" transform="translate(-241.881 -490.791)" fill="#4674b7"/>
            <path id="Path_326" data-name="Path 326" d="M507.49,603.72a19.729,19.729,0,0,1,.607,2.588A19.729,19.729,0,0,0,507.49,603.72Z" transform="translate(-253.838 -495.088)" fill="#4674b7"/>
            <path id="Path_327" data-name="Path 327" d="M506.63,601.39a17.217,17.217,0,0,1,.638,1.753A17.211,17.211,0,0,0,506.63,601.39Z" transform="translate(-253.63 -494.526)" fill="#4674b7"/>
            <path id="Path_328" data-name="Path 328" d="M506.13,600.27c.068.144.137.3.2.448C506.259,600.566,506.2,600.414,506.13,600.27Z" transform="translate(-253.51 -494.256)" fill="#4674b7"/>
            <path id="Path_329" data-name="Path 329" d="M507.417,615.14a19.271,19.271,0,0,1-2.907,7.59A19.316,19.316,0,0,0,507.417,615.14Z" transform="translate(-253.12 -497.84)" fill="#4674b7"/>
            <path id="Path_330" data-name="Path 330" d="M502.256,602.009a19.742,19.742,0,0,0-.607-2.588c0-.008-.008-.015-.008-.023-.19-.6-.4-1.177-.638-1.753-.061-.137-.121-.273-.182-.4-.068-.152-.129-.3-.2-.448A19.263,19.263,0,0,0,483.25,585.88h0v6.376a12.888,12.888,0,1,1,0,25.777v6.376h0a19.28,19.28,0,0,0,19.044-16.334,19.671,19.671,0,0,0,.22-2.937,18.882,18.882,0,0,0-.1-1.973C502.37,602.791,502.317,602.4,502.256,602.009Z" transform="translate(-247.997 -490.789)" fill="#2c436d"/>
            <path id="Path_331" data-name="Path 331" d="M371.064,493.147a16.274,16.274,0,1,0-16.274-16.274A16.275,16.275,0,0,0,371.064,493.147Z" transform="translate(-217.041 -460.6)" fill="#df912f"/>
            <path id="Path_332" data-name="Path 332" d="M281.171,696.17A21.131,21.131,0,1,0,302.3,717.3,21.127,21.127,0,0,0,281.171,696.17Z" transform="translate(-194.209 -517.365)" fill="#a6a7aa"/>
            <circle id="Ellipse_45" data-name="Ellipse 45" cx="8.767" cy="8.767" r="8.767" transform="translate(50.465 30.707) rotate(-13.286)" fill="#a6a7aa"/>
            <circle id="Ellipse_46" data-name="Ellipse 46" cx="8.767" cy="8.767" r="8.767" transform="translate(169.091 67.417) rotate(-87.799)" fill="#a6a7aa"/>
            <path id="Path_333" data-name="Path 333" d="M185.272,598.18a11.962,11.962,0,1,0,11.955,11.962A11.961,11.961,0,0,0,185.272,598.18Z" transform="translate(-173.31 -493.753)" fill="#4674b7"/>
          </g>
          <g id="Group_668" data-name="Group 668" transform="translate(1072.059 601.546)">
            <g id="Group_659" data-name="Group 659">
              <rect id="Rectangle_283" data-name="Rectangle 283" width="102.788" height="133.627" fill="#595a5c"/>
            </g>
            <g id="Group_660" data-name="Group 660" transform="translate(12.031 10.406)">
              <rect id="Rectangle_284" data-name="Rectangle 284" width="78.719" height="36.76" fill="#fff"/>
            </g>
            <g id="Group_661" data-name="Group 661" transform="translate(17.025 54.521)">
              <path id="Path_334" data-name="Path 334" d="M1511.963,930.626h-9.974V920.66h-8.456v9.966h-9.974v8.456h9.974v9.974h8.456v-9.974h9.974Z" transform="translate(-1483.56 -920.66)" fill="#fff"/>
            </g>
            <g id="Group_662" data-name="Group 662" transform="translate(18.194 94.393)">
              <path id="Path_335" data-name="Path 335" d="M1511.165,979.171l-5.981-5.981-7.051,7.051-7.052-7.051-5.981,5.981,7.052,7.051-7.052,7.051,5.981,5.981,7.052-7.051,7.051,7.051,5.981-5.981-7.051-7.051Z" transform="translate(-1485.1 -973.19)" fill="#fff"/>
            </g>
            <g id="Group_663" data-name="Group 663" transform="translate(57.792 64.487)">
              <rect id="Rectangle_285" data-name="Rectangle 285" width="28.403" height="8.456" fill="#fff"/>
            </g>
            <g id="Group_667" data-name="Group 667" transform="translate(57.565 93.004)">
              <g id="Group_664" data-name="Group 664" transform="translate(1.481 1.379)">
                <rect id="Rectangle_286" data-name="Rectangle 286" width="28.403" height="8.456" transform="matrix(0.707, -0.707, 0.707, 0.707, 0, 20.084)" fill="#fff"/>
              </g>
              <g id="Group_665" data-name="Group 665">
                <path id="Path_336" data-name="Path 336" d="M1545.858,972.886a5.206,5.206,0,1,1-7.363,0A5.2,5.2,0,0,1,1545.858,972.886Z" transform="translate(-1536.97 -971.36)" fill="#fff"/>
              </g>
              <g id="Group_666" data-name="Group 666" transform="translate(18.429 18.429)">
                <path id="Path_337" data-name="Path 337" d="M1570.138,997.166a5.206,5.206,0,1,1-7.362,0A5.2,5.2,0,0,1,1570.138,997.166Z" transform="translate(-1561.25 -995.64)" fill="#fff"/>
              </g>
            </g>
          </g>
          <g id="Group_681" data-name="Group 681" transform="translate(440.015 23.742)">
            <g id="Group_669" data-name="Group 669" transform="translate(24.092 50.301)">
              <rect id="Rectangle_287" data-name="Rectangle 287" width="19.097" height="12.607" fill="#a6a7aa"/>
            </g>
            <g id="Group_670" data-name="Group 670" transform="translate(24.092 33.488)">
              <rect id="Rectangle_288" data-name="Rectangle 288" width="19.097" height="12.607" fill="#dcdcdb"/>
            </g>
            <g id="Group_671" data-name="Group 671" transform="translate(24.092 67.736)">
              <rect id="Rectangle_289" data-name="Rectangle 289" width="19.097" height="39.371" fill="#4f4f50"/>
            </g>
            <g id="Group_672" data-name="Group 672" transform="translate(0 50.301)">
              <rect id="Rectangle_290" data-name="Rectangle 290" width="19.097" height="12.607" fill="#a6a7aa"/>
            </g>
            <g id="Group_673" data-name="Group 673" transform="translate(0 33.488)">
              <rect id="Rectangle_291" data-name="Rectangle 291" width="19.097" height="12.607" fill="#a6a7aa"/>
            </g>
            <g id="Group_674" data-name="Group 674" transform="translate(0 16.805)">
              <rect id="Rectangle_292" data-name="Rectangle 292" width="19.097" height="12.607" fill="#dcdcdb"/>
            </g>
            <g id="Group_675" data-name="Group 675">
              <rect id="Rectangle_293" data-name="Rectangle 293" width="19.097" height="12.607" fill="#dcdcdb"/>
            </g>
            <g id="Group_676" data-name="Group 676" transform="translate(0 67.736)">
              <rect id="Rectangle_294" data-name="Rectangle 294" width="19.097" height="39.371" fill="#4f4f50"/>
            </g>
            <g id="Group_677" data-name="Group 677" transform="translate(48.821 67.425)">
              <rect id="Rectangle_295" data-name="Rectangle 295" width="19.097" height="12.607" fill="#a6a7aa"/>
            </g>
            <g id="Group_678" data-name="Group 678" transform="translate(48.821 50.612)">
              <rect id="Rectangle_296" data-name="Rectangle 296" width="19.097" height="12.607" fill="#dcdcdb"/>
            </g>
            <g id="Group_679" data-name="Group 679" transform="translate(70.499 94.492)">
              <rect id="Rectangle_297" data-name="Rectangle 297" width="19.097" height="12.607" fill="#4f4f50"/>
            </g>
            <g id="Group_680" data-name="Group 680" transform="translate(48.821 84.852)">
              <rect id="Rectangle_298" data-name="Rectangle 298" width="19.097" height="22.247" fill="#4f4f50"/>
            </g>
          </g>
          <g id="Group_682" data-name="Group 682" transform="translate(19.086 186.058)">
            <path id="Path_338" data-name="Path 338" d="M79.053,515.419a7.549,7.549,0,1,0,9.533,4.8A7.549,7.549,0,0,0,79.053,515.419Z" transform="translate(-73.867 -352.908)" fill="#6892b2"/>
            <path id="Path_339" data-name="Path 339" d="M123.793,412.708a7.549,7.549,0,1,0,9.533,4.8A7.549,7.549,0,0,0,123.793,412.708Z" transform="translate(-84.648 -328.157)" fill="#a6a7aa"/>
            <path id="Path_340" data-name="Path 340" d="M204.913,433.929a7.549,7.549,0,1,0,9.533,4.8A7.549,7.549,0,0,0,204.913,433.929Z" transform="translate(-104.195 -333.271)" fill="#a6a7aa"/>
            <path id="Path_341" data-name="Path 341" d="M257.2,318.229a7.549,7.549,0,1,0,9.533,4.8A7.549,7.549,0,0,0,257.2,318.229Z" transform="translate(-116.796 -305.391)" fill="#df912f"/>
            <path id="Path_342" data-name="Path 342" d="M318.323,362.208a7.549,7.549,0,1,0,9.533,4.8A7.549,7.549,0,0,0,318.323,362.208Z" transform="translate(-131.524 -315.988)" fill="#a6a7aa"/>
            <path id="Path_343" data-name="Path 343" d="M367.927,306.623a7.549,7.549,0,1,0-4.8,9.533A7.549,7.549,0,0,0,367.927,306.623Z" transform="translate(-141.179 -301.437)" fill="#a6a7aa"/>
          </g>
          <g id="Group_687" data-name="Group 687" transform="translate(25.411 511.692)">
            <g id="Group_683" data-name="Group 683" transform="translate(17.545)">
              <path id="Path_344" data-name="Path 344" d="M152.077,730.63H121.093c-16.744,0-16.387,2.14-14.96,9.974s20.3,17.883,20.3,17.883l7.909,8.835,12.395-8.835s18.877-10.049,20.3-17.883S168.821,730.63,152.077,730.63Z" transform="translate(-105.363 -730.493)" fill="#a6a7aa"/>
              <path id="Path_345" data-name="Path 345" d="M134.268,767.468l-7.977-8.9a97.924,97.924,0,0,1-9.609-6c-6.528-4.653-10.148-8.683-10.74-11.97-.653-3.605-1.093-5.989.243-7.59,1.571-1.882,5.457-2.55,14.854-2.55h30.991c9.4,0,13.283.668,14.854,2.55,1.336,1.6.9,3.985.243,7.59-.6,3.287-4.213,7.317-10.74,11.97a99.54,99.54,0,0,1-9.632,6.011Zm-13.23-36.745c-9.184,0-13.154.66-14.642,2.452-1.252,1.5-.827,3.833-.182,7.363,1.4,7.681,20.046,17.685,20.236,17.792l.038.03,7.826,8.744,12.3-8.759c.2-.106,18.854-10.118,20.251-17.8.645-3.529,1.063-5.867-.182-7.363-1.488-1.784-5.457-2.452-14.642-2.452h-31Z" transform="translate(-105.315 -730.45)" fill="#fff"/>
            </g>
            <g id="Group_684" data-name="Group 684" transform="translate(0 11.773)">
              <path id="Path_346" data-name="Path 346" d="M176.92,802.01c0,21.367-19.993,38.68-44.646,38.68S87.62,823.369,87.62,802.01s19.993-50.62,44.654-50.62S176.92,780.643,176.92,802.01Z" transform="translate(-83.506 -747.268)" fill="#a6a7aa"/>
              <path id="Path_347" data-name="Path 347" d="M130.968,843.5A52.168,52.168,0,0,1,96.7,831.161c-9.351-8.1-14.5-18.923-14.5-30.468,0-11.659,5.23-25.086,14-35.91a55.34,55.34,0,0,1,15.34-13.366,37.321,37.321,0,0,1,38.862,0,55.588,55.588,0,0,1,15.34,13.366c8.759,10.831,14,24.251,14,35.91,0,11.545-5.146,22.361-14.5,30.468A52.183,52.183,0,0,1,130.968,843.5Zm0-89.3c-5.829,0-17.268,2.049-28.373,15.773-7.5,9.268-12.16,21.04-12.16,30.733,0,19.059,18.186,34.566,40.532,34.566S171.5,819.76,171.5,800.7c0-9.685-4.66-21.458-12.16-30.733C148.236,756.245,136.8,754.2,130.968,754.2Z" transform="translate(-82.2 -745.96)" fill="#fff"/>
            </g>
            <g id="Group_686" data-name="Group 686" transform="translate(32.084 33.746)">
              <g id="Group_685" data-name="Group 685">
                <path id="Path_348" data-name="Path 348" d="M154.239,801.909a17.947,17.947,0,0,0-6.96-2.922l-2.558-.607V788.239c.175.076.342.152.509.235a5.759,5.759,0,0,1,3.249,5.161h8.084q-.216-6.421-4.767-9.792a16.767,16.767,0,0,0-7.074-3.029V774.91h-7.127v5.738a14.892,14.892,0,0,0-8.486,3.4,11.559,11.559,0,0,0-3.977,8.987q0,5.932,4.068,8.714,2.323,1.605,8.395,2.991v10.945a6.694,6.694,0,0,1-3.56-2.08,8.174,8.174,0,0,1-1.533-4.122H124.47a11.891,11.891,0,0,0,4.554,9.875,17.219,17.219,0,0,0,8.569,3.34v5.807h7.127v-5.731a16.027,16.027,0,0,0,8.858-3.469,11.543,11.543,0,0,0,4.266-9.162Q157.833,804.747,154.239,801.909Zm-19.378-6.247a3.457,3.457,0,0,1-1.958-3.226,4.142,4.142,0,0,1,1.989-3.659,7.675,7.675,0,0,1,2.695-1.063v8.941A14.023,14.023,0,0,1,134.861,795.662Zm11.272,19.765a10.9,10.9,0,0,1-1.412.364v-9.427a13.971,13.971,0,0,1,3.249,1.305,3.442,3.442,0,0,1,1.761,3.089Q149.719,814.175,146.133,815.427Z" transform="translate(-124.47 -774.91)" fill="#fff"/>
              </g>
            </g>
          </g>
          <g id="Group_689" data-name="Group 689" transform="translate(1183.849 145.84)">
            <g id="Group_688" data-name="Group 688">
              <path id="Path_349" data-name="Path 349" d="M1661.428,296.527q-4.133-3.256-12.395-5.207l-4.562-1.078V272.185c.311.129.615.266.9.41q5.385,2.721,5.784,9.192h14.391q-.4-11.431-8.494-17.435a29.867,29.867,0,0,0-12.592-5.389V248.45h-12.691v10.217q-9.575,1.093-15.112,6.057a20.6,20.6,0,0,0-7.089,16q0,10.554,7.249,15.515,4.133,2.869,14.953,5.321v19.484a11.916,11.916,0,0,1-6.338-3.7Q1623.4,314.9,1622.7,310H1608.41q0,11.181,8.107,17.579,5.977,4.714,15.257,5.951v10.346h12.691V333.666q9.814-1.093,15.773-6.186a20.563,20.563,0,0,0,7.59-16.311Q1667.838,301.582,1661.428,296.527Zm-34.5-11.135a6.162,6.162,0,0,1-3.491-5.738,7.378,7.378,0,0,1,3.537-6.512,13.662,13.662,0,0,1,4.8-1.89v15.917A24.913,24.913,0,0,1,1626.93,285.392Zm20.061,35.2a17.622,17.622,0,0,1-2.52.653V304.466a25.017,25.017,0,0,1,5.791,2.323,6.132,6.132,0,0,1,3.135,5.5Q1653.4,318.364,1646.991,320.6Z" transform="translate(-1608.41 -248.45)" fill="#a6a7aa"/>
            </g>
          </g>
          <g id="Group_690" data-name="Group 690" transform="translate(461.944 651.535)">
            <path id="Path_350" data-name="Path 350" d="M730.984,914.69H712.137l-17.875,30.369L676.273,914.69H657.32l23.074,38.392h-8.615v12.63h13.761v2.33H671.779v12.63h13.761v16.236h16.9V980.672h14.08v-12.63h-14.08v-2.33h14.08v-12.63h-8.668Z" transform="translate(-657.32 -914.69)" fill="#a6a7aa"/>
          </g>
          <g id="Group_691" data-name="Group 691" transform="translate(35.908 82.264)">
            <path id="Path_351" data-name="Path 351" d="M157.01,211.348a20.843,20.843,0,0,1-5.063,11.871q-4.144,4.509-11.514,4.5a18.761,18.761,0,0,1-9.207-2.095,17.518,17.518,0,0,1-6.141-5.579c-.273-.4-.524-.812-.767-1.23h14.224v-12H120.752c-.068-.736-.114-1.473-.137-2.216h17.936v-12H122.027a23.98,23.98,0,0,1,3.066-6.679,17.358,17.358,0,0,1,6.141-5.624,18.761,18.761,0,0,1,9.207-2.095,16.745,16.745,0,0,1,5.678.972,16.513,16.513,0,0,1,4.858,2.71,16.181,16.181,0,0,1,3.583,4.038,13.115,13.115,0,0,1,1.844,5.063h15.553a29.582,29.582,0,0,0-3.476-11.256,27.526,27.526,0,0,0-7.006-8.235,30.908,30.908,0,0,0-9.617-5.063,39.174,39.174,0,0,0-26.5,1.23,32.369,32.369,0,0,0-11.31,8.182,36.538,36.538,0,0,0-7.059,12.228,42.589,42.589,0,0,0-1.306,4.531H96.03v12h8.509c.023.744.053,1.488.106,2.216H96.03v12h11.2a35.4,35.4,0,0,0,6.816,11.363,32.316,32.316,0,0,0,11.31,8.031,37.472,37.472,0,0,0,15.09,2.915,35.932,35.932,0,0,0,12.38-2.049,28.663,28.663,0,0,0,9.822-5.936,29.728,29.728,0,0,0,6.755-9.412,37.081,37.081,0,0,0,3.173-12.38H157.01Z" transform="translate(-96.03 -164.69)" fill="#a6a7aa"/>
          </g>
          <g id="Group_692" data-name="Group 692" transform="translate(189.49 612.119)">
            <path id="Path_352" data-name="Path 352" d="M304.283,868.1c-1.973-.425-3.962-.873-5.913-1.328l.949-4.008c1.92.455,3.886.9,5.829,1.313Z" transform="translate(-298.37 -862.76)" fill="#d5772e"/>
          </g>
          <path id="Path_353" data-name="Path 353" d="M314.367,896.952a20.145,20.145,0,1,0-23.879,0,23.12,23.12,0,0,0-14.718,21.541v14.452h53.307V918.494A23.117,23.117,0,0,0,314.367,896.952Z" transform="translate(-103.434 -250.123)" fill="#dcdcdb"/>
          <path id="Path_354" data-name="Path 354" d="M304.562,860.62a20.142,20.142,0,0,0-19.932,17.351c.41.008,15.089.061,19.932-8.972,0,0,4.736,8.941,19.924,8.972A20.123,20.123,0,0,0,304.562,860.62Z" transform="translate(-105.569 -250.125)" fill="#df912f"/>
          <path id="Path_355" data-name="Path 355" d="M492.793,986.861a21.561,21.561,0,0,0-7.651-5.086,18.872,18.872,0,0,0,7.7-15.211,18.673,18.673,0,0,0-.2-2.626c-2.353-.046-14.384-.668-18.619-8.258-4.235,7.59-16.266,8.213-18.619,8.258a18.669,18.669,0,0,0-.2,2.626,18.893,18.893,0,0,0,7.7,15.211A21.784,21.784,0,0,0,449.08,1002v13.571h49.868V1002A21.574,21.574,0,0,0,492.793,986.861Z" transform="translate(-145.197 -273.032)" fill="#dcdcdb"/>
          <g id="Group_693" data-name="Group 693" transform="translate(307.565 671.301)">
            <path id="Path_356" data-name="Path 356" d="M453.93,960.285v13.632a19.477,19.477,0,0,0,2.467,9.5A21.665,21.665,0,0,1,464,978.35a18.785,18.785,0,0,1-7.666-15.127,18.453,18.453,0,0,1,.2-2.611c2.338-.046,14.308-.668,18.52-8.213v-8.554h0v-3.1h-1.586A19.537,19.537,0,0,0,453.93,960.285Z" transform="translate(-453.93 -940.732)" fill="#4674b7"/>
            <path id="Path_357" data-name="Path 357" d="M483.62,940.73h-1.852v3.1c.03,0,.061-.008.091-.008h.083c.046,0,.084.008.129.008-.061,0-.114-.008-.175-.008-.046,0-.083.008-.129.008v.569h.129c-.046,0-.091.008-.137.008v7.977a1.7,1.7,0,0,0,.091-.159.463.463,0,0,1,.038.061.265.265,0,0,0,.038-.061s3,5.032,10.976,7.294c.068.015.129.038.19.053.3.083.607.159.926.235.425.1.865.2,1.321.273l.645.114c.577.091,1.169.175,1.791.235.122.015.251.023.372.038.729.061,1.473.106,2.254.121h.129a18.5,18.5,0,0,1-7.461,17.746,21.557,21.557,0,0,1,7.56,5.01l.046.046a19.4,19.4,0,0,0,2.467-9.5V960.267A19.5,19.5,0,0,0,483.62,940.73Z" transform="translate(-460.636 -940.73)" fill="#4674b7"/>
          </g>
          <g id="Group_694" data-name="Group 694" transform="translate(601.013)">
            <path id="Path_358" data-name="Path 358" d="M840.54,56.31v7.438h70.491v87.88h6.892V56.31Z" transform="translate(-840.54 -56.31)" fill="#a6a7aa"/>
          </g>
          <g id="Group_695" data-name="Group 695" transform="translate(588.436 9.64)">
            <path id="Path_359" data-name="Path 359" d="M891.425,167.517H823.97V69.01h80.875v83.645Z" transform="translate(-823.97 -69.01)" fill="#dcdcdb"/>
          </g>
          <g id="Group_696" data-name="Group 696" transform="translate(655.891 93.285)">
            <path id="Path_360" data-name="Path 360" d="M926.26,179.21H912.84v14.862Z" transform="translate(-912.84 -179.21)" fill="#a6a7aa"/>
          </g>
          <g id="Group_697" data-name="Group 697" transform="translate(613.044 22.801)">
            <rect id="Rectangle_299" data-name="Rectangle 299" width="48.919" height="1.374" fill="#595a5c"/>
          </g>
          <g id="Group_698" data-name="Group 698" transform="translate(594.85 28.069)">
            <rect id="Rectangle_300" data-name="Rectangle 300" width="67.121" height="1.374" fill="#595a5c"/>
          </g>
          <g id="Group_699" data-name="Group 699" transform="translate(594.85 33.944)">
            <rect id="Rectangle_301" data-name="Rectangle 301" width="67.121" height="1.374" fill="#595a5c"/>
          </g>
          <g id="Group_700" data-name="Group 700" transform="translate(594.85 67.941)">
            <rect id="Rectangle_302" data-name="Rectangle 302" width="67.121" height="1.374" fill="#595a5c"/>
          </g>
          <g id="Group_701" data-name="Group 701" transform="translate(594.85 73.823)">
            <rect id="Rectangle_303" data-name="Rectangle 303" width="67.121" height="1.374" fill="#595a5c"/>
          </g>
          <g id="Group_702" data-name="Group 702" transform="translate(594.85 80.032)">
            <rect id="Rectangle_304" data-name="Rectangle 304" width="67.121" height="1.374" fill="#595a5c"/>
          </g>
          <g id="Group_703" data-name="Group 703" transform="translate(594.85 85.915)">
            <rect id="Rectangle_305" data-name="Rectangle 305" width="67.121" height="1.374" fill="#595a5c"/>
          </g>
          <g id="Group_704" data-name="Group 704" transform="translate(594.85 92.169)">
            <rect id="Rectangle_306" data-name="Rectangle 306" width="53.815" height="1.374" fill="#595a5c"/>
          </g>
          <g id="Group_705" data-name="Group 705" transform="translate(594.85 41.557)">
            <rect id="Rectangle_307" data-name="Rectangle 307" width="42.657" height="20.995" fill="#4674b7"/>
          </g>
          <g id="Group_706" data-name="Group 706" transform="translate(641.302 41.557)">
            <rect id="Rectangle_308" data-name="Rectangle 308" width="19.317" height="20.995" fill="#df912f"/>
          </g>
          <g id="Group_707" data-name="Group 707" transform="translate(641.416 703.574)">
            <path id="Path_361" data-name="Path 361" d="M962.045,1013.307H893.77l11.112-30.057h46.05Z" transform="translate(-893.77 -983.25)" fill="#a6a7aa"/>
          </g>
          <g id="Group_708" data-name="Group 708" transform="translate(711.824 703.574)">
            <path id="Path_362" data-name="Path 362" d="M1054.8,1013.307H986.53l11.112-30.057h46.043Z" transform="translate(-986.53 -983.25)" fill="#a6a7aa"/>
          </g>
          <g id="Group_709" data-name="Group 709" transform="translate(782.231 703.574)">
            <path id="Path_363" data-name="Path 363" d="M1147.565,1013.307H1079.29L1090.4,983.25h46.043Z" transform="translate(-1079.29 -983.25)" fill="#a6a7aa"/>
          </g>
          <g id="Group_710" data-name="Group 710" transform="translate(676.62 669.707)">
            <path id="Path_364" data-name="Path 364" d="M1008.425,968.687H940.15l11.112-30.057h46.05Z" transform="translate(-940.15 -938.63)" fill="#a6a7aa"/>
          </g>
          <g id="Group_711" data-name="Group 711" transform="translate(747.027 669.707)">
            <path id="Path_365" data-name="Path 365" d="M1101.185,968.687H1032.91l11.112-30.057h46.043Z" transform="translate(-1032.91 -938.63)" fill="#a6a7aa"/>
          </g>
          <g id="Group_712" data-name="Group 712" transform="translate(712.886 636.962)">
            <path id="Path_366" data-name="Path 366" d="M1056.2,925.548H987.93l11.12-30.058h46.043Z" transform="translate(-987.93 -895.49)" fill="#a6a7aa"/>
          </g>
          <g id="Group_715" data-name="Group 715" transform="translate(1130.216 482.53)">
            <g id="Group_713" data-name="Group 713" transform="translate(0 0)">
              <path id="Path_367" data-name="Path 367" d="M1599.269,702.588a36.026,36.026,0,1,0,10.558,25.481A35.8,35.8,0,0,0,1599.269,702.588Zm-24.16,58.848v-5.708h-2.641v5.708a33.43,33.43,0,0,1-32.046-32.046h5.708v-2.641h-5.708a33.43,33.43,0,0,1,32.046-32.046v5.708h2.641V694.7a33.43,33.43,0,0,1,32.046,32.046h-5.708v2.641h5.708A33.436,33.436,0,0,1,1575.109,761.436Z" transform="translate(-1537.75 -692.03)" fill="#595a5c"/>
            </g>
            <g id="Group_714" data-name="Group 714" transform="translate(34.718 12.668)">
              <path id="Path_368" data-name="Path 368" d="M1586.131,708.72h-2.641v24.691h11.568V730.77h-8.926Z" transform="translate(-1583.49 -708.72)" fill="#595a5c"/>
            </g>
          </g>
          <g id="Group_734" data-name="Group 734" transform="translate(501.003 166.903)">
            <g id="Group_732" data-name="Group 732" transform="translate(46.377 107.775)">
              <g id="Group_719" data-name="Group 719" transform="translate(148.937)">
                <g id="Group_716" data-name="Group 716">
                  <path id="Path_369" data-name="Path 369" d="M1032.3,437.295l-33.1-19.1-33.094,19.1,33.094,19.112Z" transform="translate(-966.1 -418.19)" fill="#4674b7"/>
                </g>
                <g id="Group_717" data-name="Group 717" transform="translate(0 19.105)">
                  <path id="Path_370" data-name="Path 370" d="M966.1,443.36V654.036l33.094,19.112V462.472Z" transform="translate(-966.1 -443.36)" fill="#a6a7aa"/>
                </g>
                <g id="Group_718" data-name="Group 718" transform="translate(33.094 19.105)">
                  <path id="Path_371" data-name="Path 371" d="M1009.7,462.472V673.148h0l33.1-19.112V443.36Z" transform="translate(-1009.7 -443.36)" fill="#dcdcdb"/>
                </g>
              </g>
              <g id="Group_723" data-name="Group 723" transform="translate(99.289 156.269)">
                <g id="Group_720" data-name="Group 720">
                  <path id="Path_372" data-name="Path 372" d="M966.885,643.182,933.791,624.07l-33.1,19.112,33.1,19.1Z" transform="translate(-900.69 -624.07)" fill="#df912f"/>
                </g>
                <g id="Group_721" data-name="Group 721" transform="translate(0 19.112)">
                  <path id="Path_373" data-name="Path 373" d="M900.69,649.25V734l33.1,19.1V668.355Z" transform="translate(-900.69 -649.25)" fill="#a6a7aa"/>
                </g>
                <g id="Group_722" data-name="Group 722" transform="translate(33.101 19.112)">
                  <path id="Path_374" data-name="Path 374" d="M944.3,668.355V753.1h0L977.394,734V649.25Z" transform="translate(-944.3 -649.25)" fill="#dcdcdb"/>
                </g>
              </g>
              <g id="Group_727" data-name="Group 727" transform="translate(49.648 87.713)">
                <g id="Group_724" data-name="Group 724">
                  <path id="Path_375" data-name="Path 375" d="M901.477,552.855l-33.094-19.1-33.094,19.1,33.094,19.112Z" transform="translate(-835.29 -533.75)" fill="#4674b7"/>
                </g>
                <g id="Group_725" data-name="Group 725" transform="translate(0 19.105)">
                  <path id="Path_376" data-name="Path 376" d="M835.29,558.92V742.567l33.094,19.112V578.032Z" transform="translate(-835.29 -558.92)" fill="#a6a7aa"/>
                </g>
                <g id="Group_726" data-name="Group 726" transform="translate(33.094 19.105)">
                  <path id="Path_377" data-name="Path 377" d="M878.89,578.032V761.679h0l33.094-19.112V558.92Z" transform="translate(-878.89 -558.92)" fill="#dcdcdb"/>
                </g>
              </g>
              <g id="Group_731" data-name="Group 731" transform="translate(0 216.953)">
                <g id="Group_728" data-name="Group 728">
                  <path id="Path_378" data-name="Path 378" d="M836.075,723.132,802.981,704.02l-33.1,19.112,33.1,19.1Z" transform="translate(-769.88 -704.02)" fill="#df912f"/>
                </g>
                <g id="Group_729" data-name="Group 729" transform="translate(0 19.112)">
                  <path id="Path_379" data-name="Path 379" d="M769.88,729.2v84.746l33.1,19.112V748.3Z" transform="translate(-769.88 -729.2)" fill="#a6a7aa"/>
                </g>
                <g id="Group_730" data-name="Group 730" transform="translate(33.101 19.112)">
                  <path id="Path_380" data-name="Path 380" d="M813.49,748.3v84.753h0l33.094-19.112V729.2Z" transform="translate(-813.49 -729.2)" fill="#dcdcdb"/>
                </g>
              </g>
            </g>
            <g id="Group_733" data-name="Group 733">
              <path id="Path_381" data-name="Path 381" d="M908.412,291.715l-19.864,15.522L903.2,312.5,850.8,429.653l-74.484-26.779L708.78,553.883l15.226,5.473L784.933,423.11l72.624,26.111,1.86.668,59-131.912,14.664,5.275-2.4-23.53-2.4-23.522Z" transform="translate(-708.78 -276.2)" fill="#a6a7aa"/>
            </g>
          </g>
          <g id="Group_735" data-name="Group 735" transform="translate(835.72 320.052)">
            <path id="Path_382" data-name="Path 382" d="M1223.206,568.191l2.543-2.543a4.636,4.636,0,0,0-2.74-.888,4.686,4.686,0,0,0-4.509,3.438h4.706Z" transform="translate(-1166.324 -498.884)" fill="none"/>
            <path id="Path_383" data-name="Path 383" d="M1506.3,536.83a4.67,4.67,0,0,0,7.1,1.936l-2.991-1.935H1506.3Z" transform="translate(-1235.676 -492.154)" fill="none"/>
            <path id="Path_384" data-name="Path 384" d="M1401.113,509.256v-2.748h4.433a4.684,4.684,0,1,0,.076,2.74h-4.509Z" transform="translate(-1209.2 -484.079)" fill="none"/>
            <path id="Path_385" data-name="Path 385" d="M1571.665,510.037a4.682,4.682,0,0,0-4.137-6.877,4.7,4.7,0,0,0-4.478,3.309h5.047Z" transform="translate(-1249.351 -484.04)" fill="none"/>
            <path id="Path_386" data-name="Path 386" d="M1320.126,568.2a4.682,4.682,0,0,0,4.137,6.877,4.7,4.7,0,0,0,4.478-3.309h-5.048Z" transform="translate(-1190.682 -499.713)" fill="none"/>
            <path id="Path_387" data-name="Path 387" d="M1329.522,568.229a4.7,4.7,0,0,0-4.478-3.309,4.651,4.651,0,0,0-2.193.546l2.763,2.763Z" transform="translate(-1191.47 -498.922)" fill="none"/>
            <path id="Path_388" data-name="Path 388" d="M1563.05,511.14a4.682,4.682,0,0,0,6.672,2.763l-2.763-2.763Z" transform="translate(-1249.351 -485.963)" fill="none"/>
            <path id="Path_389" data-name="Path 389" d="M1218.61,571.924a4.68,4.68,0,0,0,9.116-1.5,4.547,4.547,0,0,0-.281-1.579l-3.074,3.074Z" transform="translate(-1166.351 -499.869)" fill="none"/>
            <path id="Path_390" data-name="Path 390" d="M1514.94,534.482a4.678,4.678,0,0,0-4.418-6.232,4.689,4.689,0,0,0-4.592,3.765h5.2Z" transform="translate(-1235.586 -490.086)" fill="none"/>
            <path id="Path_391" data-name="Path 391" d="M1669.183,511.14l-2.543,2.543a4.664,4.664,0,0,0,7.249-2.543Z" transform="translate(-1274.313 -485.963)" fill="none"/>
            <path id="Path_392" data-name="Path 392" d="M1673.2,506.508a4.68,4.68,0,0,0-9.116,1.5,4.548,4.548,0,0,0,.281,1.579l3.074-3.074Z" transform="translate(-1273.696 -484.079)" fill="none"/>
            <path id="Path_393" data-name="Path 393" d="M1437.532,507.52H1410.7a6.456,6.456,0,0,1,.182,1.5,6.719,6.719,0,0,1-.121,1.245h26.71a5.641,5.641,0,0,1-.144-1.245A5.734,5.734,0,0,1,1437.532,507.52Z" transform="translate(-1212.639 -485.091)" fill="#595a5c"/>
            <path id="Path_394" data-name="Path 394" d="M1499.491,483.42H1484.5a5.273,5.273,0,0,1,0,2.748h14.991a5.269,5.269,0,0,1,0-2.748Z" transform="translate(-1230.422 -479.283)" fill="#595a5c"/>
            <path id="Path_395" data-name="Path 395" d="M1467.521,488.55,1456.47,499.6a5.525,5.525,0,0,1,2.011,1.867l10.862-10.862A5.6,5.6,0,0,1,1467.521,488.55Z" transform="translate(-1223.668 -480.519)" fill="#595a5c"/>
            <path id="Path_396" data-name="Path 396" d="M1527.266,499.59l-10.49-10.49a5.545,5.545,0,0,1-2,1.89l10.452,10.452A5.424,5.424,0,0,1,1527.266,499.59Z" transform="translate(-1237.719 -480.652)" fill="#595a5c"/>
            <path id="Path_397" data-name="Path 397" d="M1589.574,528.011l-14.2-14.2a6.413,6.413,0,0,1-1.943,1.943l14.232,14.232A5.419,5.419,0,0,1,1589.574,528.011Z" transform="translate(-1251.852 -486.606)" fill="#595a5c"/>
            <path id="Path_398" data-name="Path 398" d="M1571.6,511.087l-3.567-3.567h-5.047a4.557,4.557,0,0,0-.2,1.374,4.812,4.812,0,0,0,.2,1.374h3.909l2.763,2.763A4.7,4.7,0,0,0,1571.6,511.087Z" transform="translate(-1249.286 -485.091)" fill="#595a5c"/>
            <path id="Path_399" data-name="Path 399" d="M1706.609,507.52H1678.35a6.456,6.456,0,0,1,.182,1.5,6.708,6.708,0,0,1-.122,1.245h28.137a5.634,5.634,0,0,1-.144-1.245A5.162,5.162,0,0,1,1706.609,507.52Z" transform="translate(-1277.135 -485.091)" fill="#595a5c"/>
            <path id="Path_400" data-name="Path 400" d="M1556.188,507.52H1541.63a5.273,5.273,0,0,1,0,2.748h14.558a6.3,6.3,0,0,1,0-2.748Z" transform="translate(-1244.189 -485.091)" fill="#595a5c"/>
            <path id="Path_401" data-name="Path 401" d="M1626.593,536.9H1605.5a5.272,5.272,0,0,1,0,2.748h21.094a5.272,5.272,0,0,1,0-2.748Z" transform="translate(-1259.58 -492.17)" fill="#595a5c"/>
            <path id="Path_402" data-name="Path 402" d="M1673.361,510.27a4.482,4.482,0,0,0,.175-1.245,4.645,4.645,0,0,0-.25-1.5h-5.761l-3.074,3.074a4.675,4.675,0,0,0,1.67,2.216l2.543-2.543h4.7Z" transform="translate(-1273.785 -485.093)" fill="#595a5c"/>
            <path id="Path_403" data-name="Path 403" d="M1658.192,513.22,1643.71,527.7a5.546,5.546,0,0,1,2.027,1.86l14.2-14.2A6.363,6.363,0,0,1,1658.192,513.22Z" transform="translate(-1268.787 -486.464)" fill="#595a5c"/>
            <path id="Path_404" data-name="Path 404" d="M1402.6,510.27h4.509a4.487,4.487,0,0,0,.174-1.245,4.645,4.645,0,0,0-.25-1.5H1402.6Z" transform="translate(-1210.687 -485.093)" fill="#595a5c"/>
            <path id="Path_405" data-name="Path 405" d="M1537.874,549.792l-18.71-12.122a6.361,6.361,0,0,1-1.594,2.239l18.854,12.213A5.56,5.56,0,0,1,1537.874,549.792Z" transform="translate(-1238.391 -492.356)" fill="#595a5c"/>
            <path id="Path_406" data-name="Path 406" d="M1351.642,523.168l-13.5-15.6a5.525,5.525,0,0,1-1.8,2.118l13.329,15.393A5.543,5.543,0,0,1,1351.642,523.168Z" transform="translate(-1194.72 -485.103)" fill="#595a5c"/>
            <path id="Path_407" data-name="Path 407" d="M1309.936,501.93h-48.563a5.368,5.368,0,0,1,.152,1.268,5.571,5.571,0,0,1-.2,1.48h48.358a5.3,5.3,0,0,1,.258-2.748Z" transform="translate(-1176.642 -483.744)" fill="#595a5c"/>
            <path id="Path_408" data-name="Path 408" d="M1470.76,533.21H1367.145a5.3,5.3,0,0,1,.083.918,5.375,5.375,0,0,1-.319,1.822h104.055a6.291,6.291,0,0,1-.266-1.822A6.224,6.224,0,0,1,1470.76,533.21Z" transform="translate(-1202.087 -491.281)" fill="#595a5c"/>
            <path id="Path_409" data-name="Path 409" d="M1514.911,535.677l-3.81-2.467h-5.2a4.657,4.657,0,0,0,.281,2.74h4.114l2.991,1.935A4.663,4.663,0,0,0,1514.911,535.677Z" transform="translate(-1235.558 -491.281)" fill="#595a5c"/>
            <path id="Path_410" data-name="Path 410" d="M1233.6,506.55l-21.124,20.721.349.349-1.943,1.943-.364-.364-21.329,20.926a5.482,5.482,0,0,1,2.436,1.457l43.7-42.878A5.529,5.529,0,0,1,1233.6,506.55Z" transform="translate(-1159.261 -484.857)" fill="#595a5c"/>
            <path id="Path_411" data-name="Path 411" d="M1213.308,527.845l-.349-.349-20.016-20.016a5.488,5.488,0,0,1-1.753,2.125L1211,529.416l.364.364Z" transform="translate(-1159.743 -485.081)" fill="#595a5c"/>
            <path id="Path_412" data-name="Path 412" d="M1231.346,562.012l14.482-14.482a5.545,5.545,0,0,1-2.027-1.86l-14.2,14.2A6.366,6.366,0,0,1,1231.346,562.012Z" transform="translate(-1168.999 -494.284)" fill="#595a5c"/>
            <path id="Path_413" data-name="Path 413" d="M1261.41,542.658H1282.5a5.272,5.272,0,0,1,0-2.748H1261.41a5.445,5.445,0,0,1,.182,1.374A5.865,5.865,0,0,1,1261.41,542.658Z" transform="translate(-1176.664 -492.896)" fill="#595a5c"/>
            <path id="Path_414" data-name="Path 414" d="M1300,547.273l14.2,14.2a6.412,6.412,0,0,1,1.943-1.943L1301.913,545.3A5.542,5.542,0,0,1,1300,547.273Z" transform="translate(-1185.963 -494.195)" fill="#595a5c"/>
            <path id="Path_415" data-name="Path 415" d="M1423.082,587.769l11.051-11.052a5.525,5.525,0,0,1-2.011-1.867l-10.862,10.862A5.536,5.536,0,0,1,1423.082,587.769Z" transform="translate(-1215.183 -501.315)" fill="#595a5c"/>
            <path id="Path_416" data-name="Path 416" d="M1218.455,568.47a4.487,4.487,0,0,0-.175,1.245,4.649,4.649,0,0,0,.25,1.5h5.761l3.074-3.074a4.674,4.674,0,0,0-1.67-2.216l-2.543,2.543h-4.7Z" transform="translate(-1166.271 -499.163)" fill="#595a5c"/>
            <path id="Path_417" data-name="Path 417" d="M1333.89,572.028h14.558a5.269,5.269,0,0,1,0-2.748H1333.89a6.3,6.3,0,0,1,.152,1.374A7.412,7.412,0,0,1,1333.89,572.028Z" transform="translate(-1194.13 -499.973)" fill="#595a5c"/>
            <path id="Path_418" data-name="Path 418" d="M1363.47,576.922l10.49,10.49a5.545,5.545,0,0,1,2-1.89L1365.5,575.07A5.673,5.673,0,0,1,1363.47,576.922Z" transform="translate(-1201.258 -501.368)" fill="#595a5c"/>
            <path id="Path_419" data-name="Path 419" d="M1390.45,596.128h14.991a5.269,5.269,0,0,1,0-2.748H1390.45a5.276,5.276,0,0,1,0,2.748Z" transform="translate(-1207.759 -505.78)" fill="#595a5c"/>
            <path id="Path_420" data-name="Path 420" d="M1448.64,572.03h27.682a5.434,5.434,0,0,1-.213-1.5,5.588,5.588,0,0,1,.144-1.245H1448.7a5.648,5.648,0,0,1,.144,1.245A5.15,5.15,0,0,1,1448.64,572.03Z" transform="translate(-1221.781 -499.975)" fill="#595a5c"/>
            <path id="Path_421" data-name="Path 421" d="M1176.233,569.28h-12.175a5.633,5.633,0,0,1,.144,1.245,5.389,5.389,0,0,1-.213,1.5h12.3a5.43,5.43,0,0,1-.213-1.5A6.145,6.145,0,0,1,1176.233,569.28Z" transform="translate(-1153.189 -499.973)" fill="#595a5c"/>
            <path id="Path_422" data-name="Path 422" d="M1194.16,572.03H1211a6.45,6.45,0,0,1-.182-1.5,6.729,6.729,0,0,1,.121-1.245h-16.714a5.634,5.634,0,0,1,.144,1.245A5.162,5.162,0,0,1,1194.16,572.03Z" transform="translate(-1160.459 -499.975)" fill="#595a5c"/>
            <path id="Path_423" data-name="Path 423" d="M1320.3,567.583l3.567,3.567h5.047a4.557,4.557,0,0,0,.2-1.374,4.812,4.812,0,0,0-.2-1.374h-3.909l-2.763-2.763A4.7,4.7,0,0,0,1320.3,567.583Z" transform="translate(-1190.855 -499.096)" fill="#595a5c"/>
            <path id="Path_424" data-name="Path 424" d="M1216.282,570.416a6.318,6.318,0,1,0-.061-2.74,6.128,6.128,0,0,0-.121,1.245A6.888,6.888,0,0,0,1216.282,570.416Zm6.156-6.179a4.67,4.67,0,1,1-4.676,4.683,4.483,4.483,0,0,1,.175-1.245A4.663,4.663,0,0,1,1222.438,564.237Z" transform="translate(-1165.746 -498.361)" fill="#595a5c"/>
            <path id="Path_425" data-name="Path 425" d="M1250.052,544.826a5.5,5.5,0,0,0,7.917-3.492,5.266,5.266,0,0,0,0-2.748,5.5,5.5,0,1,0-7.917,6.239Z" transform="translate(-1173.223 -491.58)" fill="#df912f"/>
            <path id="Path_426" data-name="Path 426" d="M1289.144,541.347a5.493,5.493,0,0,0,8.2,3.325,5.583,5.583,0,0,0,1.913-1.966,5.433,5.433,0,0,0,.729-2.725,5.5,5.5,0,0,0-10.831-1.374,5.447,5.447,0,0,0-.182,1.374A5.154,5.154,0,0,0,1289.144,541.347Z" transform="translate(-1183.305 -491.585)" fill="#a6a7aa"/>
            <path id="Path_427" data-name="Path 427" d="M1318.394,565.69a6.267,6.267,0,0,0-.994,3.4,6.339,6.339,0,1,0,.994-3.4Zm5.336-1.29a4.7,4.7,0,0,1,4.478,3.309,4.557,4.557,0,0,1,.205,1.374,4.812,4.812,0,0,1-.205,1.374,4.684,4.684,0,0,1-9.161-1.374,4.65,4.65,0,0,1,.547-2.194,4.686,4.686,0,0,1,4.137-2.49Z" transform="translate(-1190.156 -498.402)" fill="#595a5c"/>
            <path id="Path_428" data-name="Path 428" d="M1353,570.714a5.273,5.273,0,1,0-.182-1.374A5.812,5.812,0,0,0,1353,570.714Z" transform="translate(-1198.691 -498.66)" fill="#4674b7"/>
            <path id="Path_429" data-name="Path 429" d="M1377.02,590.511a5.5,5.5,0,1,0,9.989,4.3,5.5,5.5,0,0,0-7.993-6.194A5.607,5.607,0,0,0,1377.02,590.511Z" transform="translate(-1204.318 -504.467)" fill="#a6a7aa"/>
            <path id="Path_430" data-name="Path 430" d="M1410.14,594.814a5.5,5.5,0,1,0,8.387-5.951,5.439,5.439,0,0,0-3.067-.934,5.512,5.512,0,0,0-5.328,4.137,5.457,5.457,0,0,0-.182,1.374A5.89,5.89,0,0,0,1410.14,594.814Z" transform="translate(-1212.458 -504.467)" fill="#a6a7aa"/>
            <path id="Path_431" data-name="Path 431" d="M1437.3,574.026a5.51,5.51,0,0,0,7.917-3.347,5.429,5.429,0,0,0,.213-1.5,5.588,5.588,0,0,0-.144-1.245,5.5,5.5,0,1,0-9.989,4.22A5.383,5.383,0,0,0,1437.3,574.026Z" transform="translate(-1218.355 -498.624)" fill="#a6a7aa"/>
            <path id="Path_432" data-name="Path 432" d="M1160.629,567.928a5.5,5.5,0,1,0-.061,2.748,5.434,5.434,0,0,0,.212-1.5A5.643,5.643,0,0,0,1160.629,567.928Z" transform="translate(-1149.76 -498.621)" fill="#a6a7aa"/>
            <path id="Path_433" data-name="Path 433" d="M1485.045,570.676a5.514,5.514,0,1,0-.061-2.748,5.634,5.634,0,0,0-.144,1.245A5.747,5.747,0,0,0,1485.045,570.676Z" transform="translate(-1230.504 -498.621)" fill="#df912f"/>
            <path id="Path_434" data-name="Path 434" d="M1674.388,505.985a6.318,6.318,0,1,0,.061,2.74,6.127,6.127,0,0,0,.121-1.245A6.47,6.47,0,0,0,1674.388,505.985Zm-6.148,6.178a4.642,4.642,0,0,1-2.74-.9,4.679,4.679,0,1,1,7.165-5.29,4.649,4.649,0,0,1,.25,1.5,4.487,4.487,0,0,1-.175,1.245A4.668,4.668,0,0,1,1668.24,512.163Z" transform="translate(-1273.173 -483.556)" fill="#595a5c"/>
            <path id="Path_435" data-name="Path 435" d="M1641.139,532.1a5.5,5.5,0,0,0-7.917,3.492,5.5,5.5,0,1,0,7.917-3.492Z" transform="translate(-1266.216 -490.857)" fill="#a6a7aa"/>
            <path id="Path_436" data-name="Path 436" d="M1602.059,535.587a5.493,5.493,0,0,0-8.2-3.325,5.584,5.584,0,0,0-1.913,1.966,5.435,5.435,0,0,0-.729,2.725,5.5,5.5,0,0,0,10.831,1.374,5.446,5.446,0,0,0,.182-1.374A5.755,5.755,0,0,0,1602.059,535.587Z" transform="translate(-1256.139 -490.857)" fill="#4674b7"/>
            <path id="Path_437" data-name="Path 437" d="M1572.276,510.711a6.265,6.265,0,0,0,.994-3.4,6.338,6.338,0,1,0-2.93,5.336A6.2,6.2,0,0,0,1572.276,510.711ZM1566.94,512a4.7,4.7,0,0,1-4.478-3.309,4.556,4.556,0,0,1-.2-1.374,4.816,4.816,0,0,1,.2-1.374A4.683,4.683,0,1,1,1566.94,512Z" transform="translate(-1248.763 -483.515)" fill="#595a5c"/>
            <path id="Path_438" data-name="Path 438" d="M1538.189,506.207a5.379,5.379,0,1,0,.175,1.374A5.13,5.13,0,0,0,1538.189,506.207Z" transform="translate(-1240.748 -483.777)" fill="#a6a7aa"/>
            <path id="Path_439" data-name="Path 439" d="M1514.173,486.41a5.5,5.5,0,1,0-9.981-4.3,5.5,5.5,0,0,0,9.981,4.3Z" transform="translate(-1235.124 -477.97)" fill="#a6a7aa"/>
            <path id="Path_440" data-name="Path 440" d="M1481.059,482.107a5.269,5.269,0,1,0,.182,1.374A5.879,5.879,0,0,0,1481.059,482.107Z" transform="translate(-1226.981 -477.97)" fill="#4674b7"/>
            <path id="Path_441" data-name="Path 441" d="M1453.9,502.9a5.51,5.51,0,0,0-7.917,3.347,5.43,5.43,0,0,0-.213,1.5,5.575,5.575,0,0,0,.144,1.245,5.505,5.505,0,1,0,9.989-4.228A5.424,5.424,0,0,0,1453.9,502.9Z" transform="translate(-1221.09 -483.818)" fill="#a6a7aa"/>
            <path id="Path_442" data-name="Path 442" d="M1720.8,502.24a5.514,5.514,0,0,0-5.3,4.008,5.43,5.43,0,0,0-.213,1.5,5.589,5.589,0,0,0,.144,1.245,5.506,5.506,0,1,0,5.366-6.748Z" transform="translate(-1286.036 -483.818)" fill="#a6a7aa"/>
            <path id="Path_443" data-name="Path 443" d="M1406.748,505.985a6.319,6.319,0,1,0,.061,2.74,6.128,6.128,0,0,0,.122-1.245A6.9,6.9,0,0,0,1406.748,505.985Zm-6.156,6.178a4.67,4.67,0,1,1,4.683-4.683,4.487,4.487,0,0,1-.174,1.245A4.679,4.679,0,0,1,1400.593,512.163Z" transform="translate(-1208.68 -483.556)" fill="#595a5c"/>
            <path id="Path_444" data-name="Path 444" d="M1186.961,563.89a5.6,5.6,0,0,0-1.518-.22,5.5,5.5,0,0,0-5.359,4.258,5.649,5.649,0,0,0-.144,1.245,5.388,5.388,0,0,0,.213,1.5,5.506,5.506,0,0,0,10.6,0,5.429,5.429,0,0,0,.213-1.5,5.6,5.6,0,0,0-.144-1.245,5.4,5.4,0,0,0-1.412-2.581A5.592,5.592,0,0,0,1186.961,563.89Z" transform="translate(-1157.032 -498.621)" fill="#4674b7"/>
            <path id="Path_445" data-name="Path 445" d="M1257.932,500.583a5.515,5.515,0,1,0-.061,2.748,5.575,5.575,0,0,0,.2-1.48A5.028,5.028,0,0,0,1257.932,500.583Z" transform="translate(-1173.209 -482.397)" fill="#a6a7aa"/>
            <path id="Path_446" data-name="Path 446" d="M1335.389,505.064a5.5,5.5,0,1,0-10.118-4.273,5.56,5.56,0,0,0-.342,1.89,5.378,5.378,0,0,0,.076.858,5.494,5.494,0,0,0,8.592,3.651A5.722,5.722,0,0,0,1335.389,505.064Z" transform="translate(-1191.971 -482.597)" fill="#a6a7aa"/>
            <path id="Path_447" data-name="Path 447" d="M1363.76,531.755a5.51,5.51,0,1,0-.235,2.748,5.566,5.566,0,0,0,.319-1.822A6.177,6.177,0,0,0,1363.76,531.755Z" transform="translate(-1198.694 -489.826)" fill="#a6a7aa"/>
            <path id="Path_448" data-name="Path 448" d="M1515.81,534.879a6.329,6.329,0,1,0-12.091-3.385,6.158,6.158,0,0,0-.068.918,6.332,6.332,0,0,0,12.16,2.467Zm-5.829,2.224a4.693,4.693,0,0,1-4.683-4.683,4.546,4.546,0,0,1,.091-.918,4.683,4.683,0,0,1,9.275.918,4.771,4.771,0,0,1-.266,1.548,4.677,4.677,0,0,1-4.418,3.135Z" transform="translate(-1235.037 -489.565)" fill="#595a5c"/>
            <path id="Path_449" data-name="Path 449" d="M1547.59,551.62a5.5,5.5,0,0,0-3.81,1.533,5.48,5.48,0,0,0-1.7,3.97,5.507,5.507,0,1,0,5.51-5.5Z" transform="translate(-1244.298 -495.717)" fill="#a6a7aa"/>
            <path id="Path_450" data-name="Path 450" d="M1190.167,505a5.438,5.438,0,0,0,.524-2.33,5.537,5.537,0,1,0-.524,2.33Z" transform="translate(-1156.967 -482.597)" fill="#df912f"/>
          </g>
          <path id="Path_451" data-name="Path 451" d="M1474.412,679.3a9.662,9.662,0,1,0,9.662,9.662A9.663,9.663,0,0,0,1474.412,679.3Z" transform="translate(-389.943 -206.432)" fill="#e6e6e6"/>
          <g id="Group_738" data-name="Group 738" transform="translate(1074.807 472.868)" opacity="0.5">
            <g id="Group_737" data-name="Group 737" transform="translate(0 0)">
              <g id="Group_736" data-name="Group 736" clip-path="url(#clip-path-2)">
                <path id="Path_452" data-name="Path 452" d="M1474.412,698.625a9.662,9.662,0,0,1,0-19.325Z" transform="translate(-1464.75 -679.3)" fill="#e6e6e6"/>
              </g>
            </g>
          </g>
          <path id="Path_453" data-name="Path 453" d="M657.1,784.88a9.662,9.662,0,1,0,9.662,9.662A9.663,9.663,0,0,0,657.1,784.88Z" transform="translate(-192.996 -231.874)" fill="#e6e6e6"/>
          <g id="Group_741" data-name="Group 741" transform="translate(454.444 553.006)" opacity="0.5">
            <g id="Group_740" data-name="Group 740">
              <g id="Group_739" data-name="Group 739" clip-path="url(#clip-path-2)">
                <path id="Path_454" data-name="Path 454" d="M657.1,804.2a9.662,9.662,0,1,1,0-19.325Z" transform="translate(-647.44 -784.88)" fill="#e6e6e6"/>
              </g>
            </g>
          </g>
          <path id="Path_455" data-name="Path 455" d="M135.442,661.69a9.662,9.662,0,1,0,9.662,9.662A9.663,9.663,0,0,0,135.442,661.69Z" transform="translate(-67.291 -202.189)" fill="#e6e6e6"/>
          <g id="Group_744" data-name="Group 744" transform="translate(58.489 459.501)" opacity="0.5">
            <g id="Group_743" data-name="Group 743" transform="translate(0 0)">
              <g id="Group_742" data-name="Group 742" clip-path="url(#clip-path-2)">
                <path id="Path_456" data-name="Path 456" d="M135.442,681.015a9.662,9.662,0,1,1,0-19.325Z" transform="translate(-125.78 -661.69)" fill="#e6e6e6"/>
              </g>
            </g>
          </g>
          <path id="Path_457" data-name="Path 457" d="M254.582,105.31a9.662,9.662,0,1,0,9.662,9.662A9.663,9.663,0,0,0,254.582,105.31Z" transform="translate(-96 -68.118)" fill="#e6e6e6"/>
          <g id="Group_747" data-name="Group 747" transform="translate(148.92 37.192)" opacity="0.5">
            <g id="Group_746" data-name="Group 746">
              <g id="Group_745" data-name="Group 745" clip-path="url(#clip-path-2)">
                <path id="Path_458" data-name="Path 458" d="M254.582,124.625a9.662,9.662,0,0,1,0-19.325Z" transform="translate(-244.92 -105.308)" fill="#e6e6e6"/>
              </g>
            </g>
          </g>
          <path id="Path_459" data-name="Path 459" d="M1696.494,793.16a24.964,24.964,0,1,0,24.964,24.964A24.964,24.964,0,0,0,1696.494,793.16Z" transform="translate(-439.771 -233.869)" fill="#e6e6e6"/>
          <g id="Group_750" data-name="Group 750" transform="translate(1231.759 559.291)" opacity="0.5">
            <g id="Group_749" data-name="Group 749">
              <g id="Group_748" data-name="Group 748" clip-path="url(#clip-path-6)">
                <path id="Path_460" data-name="Path 460" d="M1696.494,843.089a24.964,24.964,0,1,1,0-49.929Z" transform="translate(-1671.53 -793.16)" fill="#e6e6e6"/>
              </g>
            </g>
          </g>
          <path id="Path_461" data-name="Path 461" d="M1097.13,243.65a30.08,30.08,0,1,0,30.08,30.08A30.077,30.077,0,0,0,1097.13,243.65Z" transform="translate(-294.109 -101.453)" fill="#e6e6e6"/>
          <g id="Group_753" data-name="Group 753" transform="translate(772.941 142.189)" opacity="0.5">
            <g id="Group_752" data-name="Group 752">
              <g id="Group_751" data-name="Group 751" clip-path="url(#clip-path-7)">
                <path id="Path_462" data-name="Path 462" d="M1097.13,303.8a30.08,30.08,0,0,1,0-60.161Z" transform="translate(-1067.05 -243.64)" fill="#e6e6e6"/>
              </g>
            </g>
          </g>
          <path id="Path_463" data-name="Path 463" d="M284.6,997.24a19.439,19.439,0,1,0,19.439,19.439A19.443,19.443,0,0,0,284.6,997.24Z" transform="translate(-100.877 -283.047)" fill="#e6e6e6"/>
          <g id="Group_756" data-name="Group 756" transform="translate(164.275 714.186)" opacity="0.5">
            <g id="Group_755" data-name="Group 755" transform="translate(0)">
              <g id="Group_754" data-name="Group 754" clip-path="url(#clip-path-8)">
                <path id="Path_464" data-name="Path 464" d="M284.6,1036.117a19.439,19.439,0,1,1,0-38.877v38.877Z" transform="translate(-265.152 -997.232)" fill="#e6e6e6"/>
              </g>
            </g>
          </g>
        </g>
      </g>
    </g>
    <path id="Union_12" data-name="Union 12" d="M0,377.111V0H1366V377.111C1107.271,499.293,869.309,540.01,666.923,540,262.224,539.98,0,377.111,0,377.111Z" transform="translate(-14989 2124)" fill="#fff" opacity="0.98"/>
  </g>
</svg>
