<svg xmlns="http://www.w3.org/2000/svg" width="123.062" height="123.062" viewBox="0 0 123.062 123.062">
  <g id="Group_774" data-name="Group 774" transform="translate(14538.652 -3098.016)">
    <path id="Path_497" data-name="Path 497" d="M95.148-34.451,76.273-53.325l6.79-6.791L95.148-48.032l30.522-30.522,6.791,6.791Z" transform="translate(-14581.488 3216.049)" fill="#1bb800"/>
    <g id="Group_773" data-name="Group 773" transform="translate(1.563 -1)">
      <g id="Group_772" data-name="Group 772">
        <g id="Group_771" data-name="Group 771">
          <g id="Group_770" data-name="Group 770">
            <g id="Path_498" data-name="Path 498" transform="translate(-14540.215 3099.016)" fill="none">
              <path d="M61.531,0A61.531,61.531,0,1,1,0,61.531,61.531,61.531,0,0,1,61.531,0Z" stroke="none"/>
              <path d="M 61.5308837890625 5.999992370605469 C 30.91103363037109 5.999992370605469 5.999992370605469 30.91103363037109 5.999992370605469 61.5308837890625 C 5.999992370605469 92.15073394775391 30.91103363037109 117.0617752075195 61.5308837890625 117.0617752075195 C 92.15073394775391 117.0617752075195 117.0617752075195 92.15073394775391 117.0617752075195 61.5308837890625 C 117.0617752075195 30.91103363037109 92.15073394775391 5.999992370605469 61.5308837890625 5.999992370605469 M 61.5308837890625 -7.62939453125e-06 C 95.51345062255859 -7.62939453125e-06 123.0617752075195 27.54831695556641 123.0617752075195 61.5308837890625 C 123.0617752075195 95.51345062255859 95.51345062255859 123.0617752075195 61.5308837890625 123.0617752075195 C 27.54831695556641 123.0617752075195 -7.62939453125e-06 95.51345062255859 -7.62939453125e-06 61.5308837890625 C -7.62939453125e-06 27.54831695556641 27.54831695556641 -7.62939453125e-06 61.5308837890625 -7.62939453125e-06 Z" stroke="none" fill="#1bb800"/>
            </g>
          </g>
        </g>
      </g>
    </g>
  </g>
</svg>
