<svg xmlns="http://www.w3.org/2000/svg" width="84" height="84" viewBox="0 0 84 84">
  <g id="Group_575" data-name="Group 575" transform="translate(-257 -151)">
    <circle id="Ellipse_28" data-name="Ellipse 28" cx="42" cy="42" r="42" transform="translate(257 151)" fill="#c4c4c4"/>
    <g id="user-6767" transform="translate(282.246 173.543)">
      <g id="Group_570" data-name="Group 570" transform="translate(-3 -2.543)">
        <path id="Path_186" data-name="Path 186" d="M54.473,156.15H14.965v-1a19.754,19.754,0,0,1,39.509,0Zm-37.489-1.993H52.453a17.762,17.762,0,0,0-35.468,0Z" transform="translate(-14.965 -111.318)" fill="#707070"/>
        <path id="Path_187" data-name="Path 187" d="M75.412,21.9A10.952,10.952,0,1,1,86.363,10.951,10.964,10.964,0,0,1,75.412,21.9Zm0-19.911a8.959,8.959,0,1,0,8.959,8.959A8.969,8.969,0,0,0,75.412,1.993Z" transform="translate(-55.657)" fill="#707070"/>
      </g>
    </g>
  </g>
</svg>
